<svg xmlns="http://www.w3.org/2000/svg" width="27.68" height="20" viewBox="0 0 27.68 20">
  <g id="detection" transform="translate(-99.905 -214.298)">
    <path id="Path_363" data-name="Path 363" d="M442.578,441.471c.034.037.067.07.1.107.087.1-.007-.017-.017-.02.047.023.1.151.124.2l.02.04c.03.067.027.057-.01-.034a.467.467,0,0,1,.034.087,1.047,1.047,0,0,1,.067.269c.013-.01-.017-.158,0-.02,0,.037,0,.077.007.114s.017.208-.013.228c.007,0,.03-.144,0-.044-.01.044-.02.091-.034.134a.665.665,0,0,1-.027.087c-.01.03-.02.057-.034.087.034-.081.044-.1.02-.054-.04.07-.074.141-.118.2-.023.037-.067.134.007,0a.7.7,0,0,1-.081.094c-.057.06-.118.114-.178.168s.134-.087,0,0c-.04.027-.081.05-.121.074-.023.013-.1.067-.124.064,0,0,.154-.054.03-.013-.074.023-.148.047-.222.064l-.044.01c-.06.01-.06.01,0,0,.013,0,.03,0,.044-.007a.839.839,0,0,1-.091.007,2.487,2.487,0,0,1-.275,0c-.134-.007.044,0,.04.007a1.187,1.187,0,0,1-.134-.027.614.614,0,0,1-.222-.07c.007.007.144.074.034.01-.04-.023-.084-.044-.124-.067l-.081-.05c-.111-.071.094.084-.037-.027a1.706,1.706,0,0,1-.158-.154.34.34,0,0,0-.034-.037c-.047-.057-.04-.05.017.02,0,0-.047-.067-.054-.081-.027-.04-.121-.158-.114-.208.01.024.02.05.03.074-.01-.03-.023-.057-.034-.087s-.027-.087-.04-.134-.013-.077-.023-.114c-.023-.094.01.171,0,.02,0-.077-.01-.151-.007-.228,0-.037.007-.077.007-.114.007-.1-.034.168,0,.02.02-.091.047-.178.074-.269s-.02-.017-.013.03c0-.027.05-.1.064-.124s.03-.054.05-.081c0-.007.087-.141.03-.05s.03-.037.04-.044c.027-.03.057-.06.084-.087s.06-.054.091-.084c.107-.1-.1.057.017-.01.04-.023.081-.05.121-.074a.614.614,0,0,0,.124-.064c-.047.064-.1.04-.01.007.05-.017.1-.034.154-.047l.091-.02c.074-.013.06-.013-.044,0a.823.823,0,0,1,.091-.007c.077,0,.155,0,.228,0,.017,0,.03,0,.047,0,.074.007.06.007-.04-.007a.635.635,0,0,0,.134.027,1.039,1.039,0,0,1,.134.04c.013.007.03.01.044.017.067.027.057.023-.03-.013.06-.007.2.111.249.138.03.017.111.054-.02-.02a.776.776,0,0,1,.154.138.672.672,0,0,0,.95-.951,2.483,2.483,0,0,0-2.781-.47,2.423,2.423,0,0,0-1.37,2.378,2.436,2.436,0,1,0,4.151-1.908.672.672,0,1,0-.95.951Z" transform="translate(-328.06 -217.947)" fill="#999"/>
    <path id="Path_364" data-name="Path 364" d="M268.633,342.767q-.207-.212-.4-.433c-.064-.074-.124-.151-.185-.225-.1-.128.084.118-.013-.017l-.114-.155a7.414,7.414,0,0,1-.591-.977c-.04-.077-.077-.155-.114-.232-.02-.044-.144-.292-.054-.118a4.091,4.091,0,0,1-.212-.568,7.424,7.424,0,0,1-.265-1.078c-.007-.047-.013-.091-.024-.138,0-.017,0-.03-.007-.047-.01-.074-.01-.06.007.04a.925.925,0,0,1-.03-.275c-.017-.185-.027-.369-.03-.551s0-.369.01-.554c0-.077.01-.155.017-.228a1.023,1.023,0,0,1,.034-.322.77.77,0,0,1-.013.087c0-.03.01-.06.013-.091.007-.047.013-.091.024-.138l.05-.272c.037-.181.081-.363.134-.541s.107-.356.171-.531l.1-.262c.06-.151-.06.138.007-.013.02-.044.037-.087.057-.128a7.578,7.578,0,0,1,.631-1.112c.064-.094.131-.185.2-.275.1-.134-.091.111.013-.017.04-.05.081-.1.124-.151.148-.178.3-.346.463-.507a.672.672,0,1,0-.95-.95,8.269,8.269,0,0,0-2.3,4.423,8.477,8.477,0,0,0,.652,4.95,8.179,8.179,0,0,0,1.649,2.358.673.673,0,0,0,.95-.954Z" transform="translate(-159.804 -113.554)" fill="#999"/>
    <path id="Path_365" data-name="Path 365" d="M652.817,332.607q.207.212.4.433c.064.074.124.151.185.225.1.128-.084-.118.013.017l.114.155a7.408,7.408,0,0,1,.591.977c.04.077.077.155.114.232.02.044.144.292.054.118a4.084,4.084,0,0,1,.212.568,7.424,7.424,0,0,1,.265,1.078c.007.047.013.091.023.138,0,.017,0,.03.007.047.01.074.01.06-.007-.04a.923.923,0,0,1,.03.275c.017.185.027.369.03.551s0,.369-.01.554c0,.077-.01.155-.017.228a1.024,1.024,0,0,1-.034.322.813.813,0,0,1,.013-.087c0,.03-.01.06-.013.091-.007.047-.013.091-.023.138l-.05.272c-.037.181-.081.363-.134.541s-.107.356-.171.531l-.1.262c-.06.151.06-.138-.007.013-.02.044-.037.087-.057.128a7.576,7.576,0,0,1-.631,1.112c-.064.094-.131.185-.2.275-.1.134.091-.111-.013.017-.04.05-.081.1-.124.151-.148.178-.3.346-.463.507a.672.672,0,0,0,.95.95,8.268,8.268,0,0,0,2.3-4.423,8.475,8.475,0,0,0-.652-4.95,8.178,8.178,0,0,0-1.649-2.358.673.673,0,0,0-.95.954Z" transform="translate(-534.154 -113.228)" fill="#999"/>
    <path id="Path_366" data-name="Path 366" d="M104.9,233.142c-.245-.245-.48-.5-.705-.762-.111-.131-.218-.262-.326-.4l-.074-.094c.094.128.027.034,0,0-.057-.077-.114-.154-.171-.235a13.3,13.3,0,0,1-1.044-1.709c-.074-.148-.148-.3-.218-.447-.034-.071-.064-.141-.1-.215-.013-.03-.027-.057-.037-.087s-.023-.057-.037-.087c.037.087.04.1.013.03-.121-.306-.238-.611-.339-.92a13.107,13.107,0,0,1-.467-1.894c-.013-.077-.024-.151-.037-.228-.007-.05-.034-.3-.013-.1-.013-.168-.04-.336-.057-.507-.03-.322-.047-.645-.054-.971s0-.648.02-.971c.01-.154.02-.309.034-.46a2.115,2.115,0,0,1,.057-.507c-.05.144-.01.077,0,.017.007-.037.01-.077.017-.114.01-.077.024-.151.037-.228.027-.168.06-.336.094-.5.067-.319.144-.635.235-.947s.191-.625.306-.93c.054-.148.111-.292.171-.437s-.06.138.007-.013c.013-.03.024-.057.037-.087.037-.087.077-.171.118-.259a13.221,13.221,0,0,1,1.108-1.941c.111-.158.225-.316.339-.47.1-.134-.091.114.013-.017.03-.037.06-.077.091-.114.06-.077.124-.151.185-.228.252-.3.521-.594.8-.873a.672.672,0,0,0-.95-.95,13.872,13.872,0,0,0-3.852,7.429,14.078,14.078,0,0,0,1.095,8.225,13.808,13.808,0,0,0,2.757,3.936.682.682,0,0,0,.95,0,.672.672,0,0,0,0-.937Z" transform="translate(0)" fill="#999"/>
    <path id="Path_367" data-name="Path 367" d="M769.72,216.187c.245.245.48.5.705.762.111.131.218.262.326.4.023.03.05.064.074.1-.094-.128-.027-.034,0,0,.057.077.114.154.171.235a13.3,13.3,0,0,1,1.044,1.709c.074.148.148.3.218.447.033.071.064.141.1.215.013.03.027.057.037.087s.023.057.037.087c-.037-.087-.04-.1-.013-.03.121.306.239.611.339.92a13.1,13.1,0,0,1,.467,1.894c.013.077.024.151.037.228.007.05.034.3.013.1.014.168.04.336.057.507.03.322.047.645.054.971s0,.648-.02.971c-.01.154-.02.309-.034.46a2.111,2.111,0,0,1-.057.507c.05-.144.01-.077,0-.017-.007.037-.01.077-.017.114-.01.077-.024.151-.037.228-.027.168-.06.336-.094.5-.067.319-.144.635-.235.947s-.191.625-.306.93c-.054.148-.111.292-.171.437s.061-.138-.007.013c-.013.03-.024.057-.037.087-.037.087-.077.171-.118.259a13.229,13.229,0,0,1-1.108,1.941c-.111.158-.225.316-.339.47-.1.134.091-.114-.013.017-.03.037-.06.077-.091.114-.06.077-.124.151-.185.228-.252.3-.521.594-.8.873a.672.672,0,0,0,.95.95,13.872,13.872,0,0,0,3.852-7.429,14.078,14.078,0,0,0-1.095-8.225,13.809,13.809,0,0,0-2.757-3.936.682.682,0,0,0-.95,0,.668.668,0,0,0,0,.934Z" transform="translate(-647.128 -0.738)" fill="#999"/>
  </g>
</svg>
