<svg xmlns="http://www.w3.org/2000/svg" width="19.067" height="20" viewBox="0 0 19.067 20">
  <g id="status" transform="translate(-44.4 -21.476)">
    <path id="Path_354" data-name="Path 354" d="M107.7,693.2q-.859,0-1.719,0l-2.738,0h-.626a.622.622,0,0,0-.612.612q0,.859,0,1.719,0,1.37,0,2.738v.626a.612.612,0,0,0,1.223,0q0-.859,0-1.719,0-1.37,0-2.738v-.626l-.612.612q.859,0,1.719,0l2.738,0h.626a.612.612,0,0,0,0-1.223Z" transform="translate(-56.426 -658.03)" fill="#999"/>
    <path id="Path_355" data-name="Path 355" d="M616.888,27.778q.859,0,1.719,0l2.738,0h.626a.622.622,0,0,0,.612-.612q0-.859,0-1.719,0-1.37,0-2.738v-.626a.612.612,0,1,0-1.223,0q0,.859,0,1.719,0,1.37,0,2.738v.626l.612-.612q-.859,0-1.719,0l-2.738,0h-.626a.612.612,0,1,0,0,1.223Z" transform="translate(-560.218)" fill="#999"/>
    <path id="Path_356" data-name="Path 356" d="M119.928,481.993a9.029,9.029,0,0,1-.08,1.2c.008-.055.014-.108.022-.163a8.91,8.91,0,0,1-.612,2.253l.061-.147a8.866,8.866,0,0,1-.616,1.2c-.116.19-.241.377-.371.559-.031.043-.063.086-.1.128-.016.022-.033.043-.049.063-.065.088.1-.124.031-.039s-.145.181-.22.269a9.012,9.012,0,0,1-.917.934q-.119.107-.245.208c-.041.035-.084.067-.124.1s-.122.092.039-.031l-.086.065c-.179.135-.363.261-.55.381a8.956,8.956,0,0,1-1.335.7l.147-.061a8.887,8.887,0,0,1-2.253.612l.163-.022a9.138,9.138,0,0,1-2.371,0l.163.022a8.937,8.937,0,0,1-2.267-.616l.147.061a9.6,9.6,0,0,1-1.959-1.14c.171.126.024.018-.014-.012s-.069-.055-.1-.084c-.075-.061-.151-.126-.224-.19q-.214-.19-.416-.391a10.192,10.192,0,0,1-.736-.834c.139.171,0,0-.029-.041l-.086-.118c-.063-.088-.124-.177-.183-.267-.12-.179-.232-.365-.338-.552a.617.617,0,0,0-.836-.22.624.624,0,0,0-.22.836,9.5,9.5,0,0,0,17.773-4.145c.01-.173.014-.349.014-.522a.619.619,0,0,0-.612-.612.63.63,0,0,0-.614.616Z" transform="translate(-57.686 -450.524)" fill="#999"/>
    <path id="Path_357" data-name="Path 357" d="M45.623,55.314a8.908,8.908,0,0,1,.08-1.189c-.008.055-.014.108-.022.163a8.985,8.985,0,0,1,.614-2.251l-.061.147a9.107,9.107,0,0,1,.616-1.2c.116-.19.241-.377.371-.557.031-.043.063-.086.1-.128s.139-.175,0,0c.073-.09.145-.181.218-.269a8.951,8.951,0,0,1,.934-.952q.119-.107.245-.208c.041-.035.084-.067.124-.1l.043-.033c-.167.133-.055.043-.018.014.177-.135.361-.263.548-.383a8.95,8.95,0,0,1,1.333-.7l-.147.061a8.9,8.9,0,0,1,2.275-.622l-.163.022a9.066,9.066,0,0,1,2.373,0l-.163-.022a8.934,8.934,0,0,1,2.269.618l-.147-.061a9,9,0,0,1,1.937,1.123c.088.067-.1-.082-.043-.033l.057.045.092.073c.075.061.151.124.224.19.141.122.275.249.408.379a8.97,8.97,0,0,1,.742.832l.037.047c-.12-.151-.051-.067-.024-.031s.071.094.1.143c.057.08.114.159.169.241q.18.269.342.55a.611.611,0,1,0,1.056-.616,9.61,9.61,0,0,0-3.529-3.525,9.422,9.422,0,0,0-4.968-1.256,9.5,9.5,0,0,0-9.227,8.921c-.012.19-.018.381-.018.571a.612.612,0,1,0,1.223,0Z" transform="translate(0 -23.845)" fill="#999"/>
  </g>
</svg>
